<?xml version="1.0" encoding="iso-8859-1"?>
<!-- Generator: Adobe Illustrator 19.0.0, SVG Export Plug-In . SVG Version: 6.00 Build 0)  -->
<svg version="1.1" id="Capa_1" xmlns="http://www.w3.org/2000/svg" xmlns:xlink="http://www.w3.org/1999/xlink" x="0px" y="0px"
	 viewBox="0 0 60 60" style="enable-background:new 0 0 60 60;" xml:space="preserve">
<g>
	<g>
		<path d="M52.924,22.235C52.296,17.009,47.83,13,42.5,13c-1.766,0-3.478,0.436-5.009,1.269C34.643,9.76,29.755,7,24.5,7
			c-6.839,0-12.849,4.623-14.827,11.321C4.03,19.62,0,24.644,0,30.5c0,5.55,3.737,10.467,9,12.003C9.002,47.188,12.814,51,17.5,51
			c2.388,0,4.628-0.992,6.223-2.708C26.084,51.263,29.647,53,33.5,53c4.881,0,9.338-2.891,11.36-7.279
			C45.724,45.906,46.607,46,47.5,46C54.393,46,60,40.393,60,33.5C60,28.671,57.242,24.313,52.924,22.235z M47.5,44
			c-1.005,0-1.997-0.142-2.948-0.42c-0.504-0.148-1.033,0.119-1.218,0.608C41.806,48.263,37.854,51,33.5,51
			c-3.629,0-6.952-1.835-8.89-4.908c-0.181-0.287-0.496-0.463-0.836-0.467c-0.003,0-0.007,0-0.01,0
			c-0.336,0-0.649,0.169-0.835,0.449C21.722,47.906,19.692,49,17.5,49c-3.584,0-6.5-2.916-6.5-6.5c0-0.224,0.011-0.445,0.033-0.663
			c0.051-0.506-0.285-0.97-0.782-1.077C5.47,39.717,2,35.402,2,30.5c0-5.1,3.638-9.447,8.649-10.338
			c0.387-0.068,0.697-0.357,0.794-0.738C13.003,13.287,18.371,9,24.5,9c4.864,0,9.373,2.732,11.767,7.13
			c0.135,0.248,0.369,0.428,0.644,0.494c0.275,0.067,0.565,0.013,0.799-0.146C39.123,15.511,40.779,15,42.5,15
			c4.481,0,8.208,3.5,8.483,7.968c0.023,0.378,0.259,0.711,0.608,0.859C55.484,25.476,58,29.273,58,33.5C58,39.29,53.29,44,47.5,44z
			"/>
		<path d="M33.49,35h-0.98c-0.984,0-1.872,0.409-2.51,1.062C29.362,35.409,28.474,35,27.49,35h-0.98C24.574,35,23,36.57,23,38.5V40
			h2v-1.5c0-0.827,0.678-1.5,1.51-1.5h0.98c0.832,0,1.51,0.673,1.51,1.5V42h2v-3.5c0-0.827,0.678-1.5,1.51-1.5h0.98
			c0.832,0,1.51,0.673,1.51,1.5V42h2v-3.5C37,36.57,35.426,35,33.49,35z"/>
		<circle cx="37" cy="27" r="2"/>
		<circle cx="23" cy="27" r="2"/>
		<path d="M29,27c0-3.309-2.691-6-6-6s-6,2.691-6,6s2.691,6,6,6S29,30.309,29,27z M19,27c0-2.206,1.794-4,4-4s4,1.794,4,4
			s-1.794,4-4,4S19,29.206,19,27z"/>
		<path d="M37,21c-3.309,0-6,2.691-6,6s2.691,6,6,6s6-2.691,6-6S40.309,21,37,21z M37,31c-2.206,0-4-1.794-4-4s1.794-4,4-4
			s4,1.794,4,4S39.206,31,37,31z"/>
	</g>
</g>
<g>
</g>
<g>
</g>
<g>
</g>
<g>
</g>
<g>
</g>
<g>
</g>
<g>
</g>
<g>
</g>
<g>
</g>
<g>
</g>
<g>
</g>
<g>
</g>
<g>
</g>
<g>
</g>
<g>
</g>
</svg>
